<svg xmlns="http://www.w3.org/2000/svg" width="120" height="55" fill="none"><g clip-path="url(#a)"><path fill="#fff" d="M115.217 0a3.918 3.918 0 0 0-3.91 3.934v6.358a13.537 13.537 0 0 0-7.82-2.464c-7.54 0-13.684 6.16-13.684 13.75v4.888a.944.944 0 0 1-.958.954.97.97 0 0 1-.958-.954v-4.888c0-7.59-6.104-13.75-13.684-13.75-7.54 0-13.684 6.16-13.684 13.75v4.888a.944.944 0 0 1-.958.954.943.943 0 0 1-.957-.952V13.789c0-2.146-1.755-3.934-3.91-3.934-2.194 0-3.91 1.749-3.91 3.934v7.829c0 3.259-2.633 5.921-5.865 5.921s-5.865-2.623-5.865-5.921v-7.829c0-2.146-1.755-3.934-3.91-3.934-2.194 0-3.91 1.749-3.91 3.934v12.757a.944.944 0 0 1-.958.954.944.944 0 0 1-.958-.954v-4.888c0-7.59-6.104-13.75-13.684-13.75-2.912 0-5.585.914-7.819 2.464V3.934C7.815 1.788 6.06 0 3.906 0 1.716 0 0 1.749 0 3.934v25.513c0 2.146 1.755 3.934 3.91 3.934 1.157 0 2.194-.517 2.912-1.272a13.525 13.525 0 0 0 8.817 3.259 13.68 13.68 0 0 0 8.258-2.782 8.72 8.72 0 0 0 6.383 2.782c2.553 0 4.787-1.073 6.383-2.782 2.274 1.749 5.146 2.782 8.258 2.782 2.114 0 4.069-.477 5.865-1.312v17.009c0 2.146 1.755 3.934 3.91 3.934a3.917 3.917 0 0 0 3.91-3.934V35.234c.276.031.555.05.838.054h.08c4.867 0 8.817-3.974 8.817-8.822v-4.888c0-3.259 2.633-5.921 5.865-5.921 3.271 0 5.865 2.623 5.865 5.921v4.888a8.811 8.811 0 0 0 8.817 8.822c2.554 0 4.787-1.073 6.383-2.782 2.274 1.749 5.146 2.782 8.258 2.782 3.351 0 6.463-1.232 8.817-3.259a3.891 3.891 0 0 0 2.913 1.272 3.918 3.918 0 0 0 3.91-3.934V3.934c-.04-2.186-1.795-3.934-3.95-3.934h-.002ZM15.559 27.5c-3.232 0-5.865-2.623-5.865-5.921 0-3.259 2.633-5.921 5.865-5.921 3.271.079 5.865 2.702 5.865 5.921 0 3.259-2.633 5.921-5.865 5.921Zm87.928 0c-3.231 0-5.865-2.623-5.865-5.921 0-3.259 2.634-5.921 5.865-5.921 3.271 0 5.865 2.623 5.865 5.921.04 3.298-2.633 5.921-5.865 5.921ZM82.189 40.208h-.869a.178.178 0 0 0-.131.055.177.177 0 0 0-.055.13v1.739c0 .435-.186.653-.559.653-.193 0-.336-.057-.428-.172-.092-.114-.138-.275-.138-.481v-1.739a.175.175 0 0 0-.055-.13.18.18 0 0 0-.131-.055h-.869a.178.178 0 0 0-.131.055.177.177 0 0 0-.055.13v1.89c0 .522.129.914.386 1.175s.616.392 1.076.392c.253 0 .454-.039.604-.117.149-.078.273-.176.369-.296v.158c0 .05.018.094.055.13.037.037.08.055.131.055h.8a.178.178 0 0 0 .131-.055.177.177 0 0 0 .055-.13v-3.203a.175.175 0 0 0-.055-.13.178.178 0 0 0-.131-.054Zm3.443 0h-.414c-.373 0-.679.115-.918.344v-.158a.18.18 0 0 0-.055-.13.18.18 0 0 0-.131-.055h-.8a.178.178 0 0 0-.131.055.177.177 0 0 0-.055.13v3.203c0 .05.018.094.055.13.037.037.08.055.131.055h.869a.18.18 0 0 0 .131-.055.177.177 0 0 0 .055-.13v-1.691c0-.206.054-.363.162-.471.108-.108.266-.162.472-.162h.628a.18.18 0 0 0 .131-.055.177.177 0 0 0 .055-.13v-.694a.18.18 0 0 0-.055-.13.18.18 0 0 0-.131-.055l.001-.001Zm-15.804.203c-.278-.181-.631-.272-1.059-.272-.391 0-.727.079-1.007.237a1.569 1.569 0 0 0-.638.656c-.145.279-.217.6-.217.962 0 .582.162 1.037.486 1.364.324.328.783.491 1.377.491.386 0 .715-.065.987-.196.271-.131.476-.279.614-.447.138-.167.207-.297.207-.388a.151.151 0 0 0-.041-.11.151.151 0 0 0-.11-.041h-.897a.293.293 0 0 0-.117.017.677.677 0 0 0-.11.079.659.659 0 0 1-.214.117 1.012 1.012 0 0 1-.317.041.765.765 0 0 1-.435-.124c-.124-.082-.186-.22-.186-.412h2.297a.178.178 0 0 0 .131-.055.178.178 0 0 0 .055-.131v-.192c0-.311-.065-.61-.193-.897a1.617 1.617 0 0 0-.611-.701l-.002.002Zm-1.68 1.213a.647.647 0 0 1 .19-.395.582.582 0 0 1 .431-.161c.179 0 .323.054.431.161a.653.653 0 0 1 .19.395h-1.242Zm43.626-1.485c-.3 0-.573.052-.821.155a1.688 1.688 0 0 0-.59.385c-.145.154-.224.301-.237.443a.125.125 0 0 0 .037.11c.03.027.068.041.114.041h.876a.592.592 0 0 0 .138-.014.242.242 0 0 0 .111-.069.55.55 0 0 1 .373-.124c.266 0 .4.126.4.378l-.808.137c-.51.087-.885.229-1.124.426a.936.936 0 0 0-.358.756c0 .321.109.582.328.784.218.202.52.302.907.302.253 0 .462-.038.627-.113.166-.076.308-.186.428-.333v.192c0 .05.018.094.055.13.037.037.08.055.131.055h.869a.18.18 0 0 0 .131-.055.177.177 0 0 0 .055-.13v-2.082c0-.421-.137-.756-.411-1.003-.273-.247-.683-.371-1.231-.371Zm.194 2.591a.724.724 0 0 1-.511.192c-.221 0-.331-.078-.331-.234 0-.082.037-.152.111-.209a.682.682 0 0 1 .303-.12l.635-.096a.614.614 0 0 1-.207.467Zm-38.576-2.591c-.432 0-.757.137-.973.412v-.158a.18.18 0 0 0-.055-.13.18.18 0 0 0-.131-.055h-.835a.178.178 0 0 0-.131.055.177.177 0 0 0-.055.13v3.203c0 .05.018.094.055.13.037.037.08.055.131.055h.869a.178.178 0 0 0 .131-.055.177.177 0 0 0 .055-.13v-1.739c0-.206.049-.366.148-.481.099-.114.247-.172.445-.172.202 0 .353.058.452.175.099.117.148.276.148.478v1.739c0 .05.018.094.055.13.037.037.08.055.131.055h.869a.178.178 0 0 0 .131-.055.177.177 0 0 0 .055-.13v-1.89c0-.523-.133-.914-.4-1.175s-.633-.392-1.097-.392h.002Zm4.685 2.578h-.552c-.198 0-.297-.11-.297-.33v-1.113h.78a.178.178 0 0 0 .131-.055.177.177 0 0 0 .055-.13v-.694a.175.175 0 0 0-.055-.13.18.18 0 0 0-.131-.055h-.78v-1.12a.175.175 0 0 0-.055-.13.18.18 0 0 0-.131-.055h-.869a.178.178 0 0 0-.131.055.177.177 0 0 0-.055.13v1.12h-.51a.178.178 0 0 0-.131.055.177.177 0 0 0-.055.13v.694c0 .05.018.094.055.13.037.037.08.055.131.055h.51v1.155c0 .417.13.747.39.99s.608.364 1.045.364h.655a.178.178 0 0 0 .131-.055.177.177 0 0 0 .055-.13v-.694a.175.175 0 0 0-.055-.13.18.18 0 0 0-.131-.055v-.002Zm-11.081-3.595a.143.143 0 0 0-.045-.106.147.147 0 0 0-.107-.045h-.869a.293.293 0 0 0-.183.051.237.237 0 0 0-.086.12l-.959 3.024-.959-3.024a.243.243 0 0 0-.086-.12.293.293 0 0 0-.183-.051h-.869a.147.147 0 0 0-.107.045.144.144 0 0 0-.045.106c0 .018.007.048.021.089l1.408 4.296c.064.183.186.275.365.275h.911c.179 0 .301-.092.366-.275l1.408-4.296a.321.321 0 0 0 .021-.089h-.002Zm38.961-.357h-.869a.18.18 0 0 0-.131.055.177.177 0 0 0-.055.13v.694c0 .05.019.094.055.13a.18.18 0 0 0 .131.055h.869a.178.178 0 0 0 .131-.055.177.177 0 0 0 .055-.13v-.694a.175.175 0 0 0-.055-.13.178.178 0 0 0-.131-.055Zm3.437 3.952h-.552c-.198 0-.297-.11-.297-.33v-1.113h.78a.18.18 0 0 0 .131-.055.177.177 0 0 0 .055-.13v-.694a.18.18 0 0 0-.055-.13.18.18 0 0 0-.131-.055h-.78v-1.12a.175.175 0 0 0-.055-.13.178.178 0 0 0-.131-.055h-.869a.18.18 0 0 0-.131.055.177.177 0 0 0-.055.13v1.12h-.51a.178.178 0 0 0-.131.055.177.177 0 0 0-.055.13v.694c0 .05.018.094.055.13.037.037.08.055.131.055h.51v1.155c0 .417.13.747.39.99s.609.364 1.045.364h.655a.178.178 0 0 0 .131-.055.177.177 0 0 0 .055-.13v-.694a.18.18 0 0 0-.055-.13.178.178 0 0 0-.131-.055v-.002Zm-20.426-2.306c-.278-.181-.632-.272-1.059-.272-.392 0-.727.079-1.008.237-.28.158-.493.377-.638.656-.146.279-.218.6-.218.962 0 .582.163 1.037.487 1.364.324.328.783.491 1.376.491.386 0 .715-.065.987-.196s.476-.279.614-.447c.138-.167.207-.297.207-.388a.151.151 0 0 0-.041-.11.153.153 0 0 0-.111-.041h-.897a.296.296 0 0 0-.117.017.677.677 0 0 0-.11.079.659.659 0 0 1-.214.117 1.008 1.008 0 0 1-.317.041.763.763 0 0 1-.435-.124c-.124-.082-.186-.22-.186-.412h2.297a.178.178 0 0 0 .131-.055.178.178 0 0 0 .055-.131v-.192c0-.311-.065-.61-.193-.897a1.621 1.621 0 0 0-.61-.701v.002Zm-1.681 1.213a.653.653 0 0 1 .19-.395.583.583 0 0 1 .432-.161c.18 0 .323.054.431.161a.647.647 0 0 1 .19.395h-1.243Zm27.902-2.722h-.869a.178.178 0 0 0-.131.055.177.177 0 0 0-.055.13v4.509c0 .05.018.094.055.13.037.037.08.055.131.055h.869a.18.18 0 0 0 .131-.055.177.177 0 0 0 .055-.13v-4.509a.18.18 0 0 0-.055-.13.18.18 0 0 0-.131-.055Zm-9.232 1.306h-.869a.18.18 0 0 0-.131.055.177.177 0 0 0-.055.13v3.203c0 .05.019.094.055.13a.18.18 0 0 0 .131.055h.869a.178.178 0 0 0 .131-.055.177.177 0 0 0 .055-.13v-3.203a.175.175 0 0 0-.055-.13.178.178 0 0 0-.131-.055Zm-12.767.014c.135-.146.348-.22.638-.22.276 0 .476.053.6.158a.85.85 0 0 1 .262.385.421.421 0 0 0 .083.158c.028.027.078.041.152.041h.903a.145.145 0 0 0 .107-.045.145.145 0 0 0 .045-.107 1.441 1.441 0 0 0-.294-.849 1.962 1.962 0 0 0-.776-.615 2.546 2.546 0 0 0-1.083-.227c-.428 0-.802.084-1.122.251a1.87 1.87 0 0 0-.741.673 1.902 1.902 0 0 0-.283.938 22.88 22.88 0 0 0-.014.68c0 .142.005.323.014.543.018.344.115.656.289.938.174.282.421.506.739.673.317.167.689.251 1.118.251.396 0 .757-.076 1.084-.227a1.96 1.96 0 0 0 .775-.615c.192-.259.289-.542.294-.849a.147.147 0 0 0-.045-.107.146.146 0 0 0-.106-.045h-.904c-.074 0-.124.014-.152.041a.47.47 0 0 0-.083.158.854.854 0 0 1-.262.385c-.124.106-.324.158-.6.158-.29 0-.503-.073-.638-.22a.935.935 0 0 1-.232-.577 10.695 10.695 0 0 1-.014-.577c0-.229.004-.421.014-.577a.921.921 0 0 1 .232-.577v.003Zm10.639.316c-.288-.266-.649-.399-1.087-.399-.188 0-.344.02-.466.058a.857.857 0 0 0-.283.141 1.701 1.701 0 0 0-.21.213v-.158a.18.18 0 0 0-.055-.13.18.18 0 0 0-.131-.055h-.835a.18.18 0 0 0-.131.055.177.177 0 0 0-.055.13v4.509c0 .05.019.094.055.13a.18.18 0 0 0 .131.055h.869a.178.178 0 0 0 .131-.055.177.177 0 0 0 .055-.13v-1.464c.083.11.198.206.346.289.146.083.34.124.579.124.442 0 .805-.134 1.09-.402.285-.268.437-.661.455-1.179.004-.046.007-.14.007-.282 0-.137-.003-.229-.007-.275-.019-.518-.17-.91-.458-1.175Zm-.776 1.65a.708.708 0 0 1-.169.433c-.1.11-.25.165-.452.165-.189 0-.334-.054-.435-.162a.677.677 0 0 1-.18-.388 2.236 2.236 0 0 1 0-.482.71.71 0 0 1 .183-.392c.099-.105.243-.158.432-.158.202 0 .352.055.452.165.099.11.155.254.169.433.009.092.014.156.014.192 0 .036-.005.101-.014.192v.002Zm-4.836-2.049c-.299 0-.573.052-.821.155a1.683 1.683 0 0 0-.59.385c-.145.154-.224.301-.237.443a.125.125 0 0 0 .037.11c.03.027.068.041.114.041h.877c.054 0 .1-.005.138-.014a.24.24 0 0 0 .11-.069.553.553 0 0 1 .373-.124c.266 0 .4.126.4.378l-.807.137c-.511.087-.886.229-1.125.426a.936.936 0 0 0-.358.756c0 .321.109.582.328.783.219.202.521.302.907.302.253 0 .462-.038.627-.113.166-.076.308-.186.428-.333v.192c0 .05.019.094.055.13.037.037.08.055.131.055h.869a.178.178 0 0 0 .131-.055.177.177 0 0 0 .055-.13v-2.083c0-.421-.137-.756-.41-1.003-.274-.247-.684-.371-1.232-.371v.002Zm.193 2.591a.723.723 0 0 1-.511.192c-.22 0-.331-.078-.331-.234 0-.082.037-.152.111-.209a.682.682 0 0 1 .303-.12l.635-.096a.614.614 0 0 1-.207.467Z"/></g><defs><clipPath id="a"><path fill="#fff" d="M0 0h120v55H0z"/></clipPath></defs></svg>