<svg xmlns="http://www.w3.org/2000/svg" width="106" height="26" fill="none"><path fill="#fff" d="M3.074 2.788a6.925 6.925 0 0 1 7.104-.351 6.877 6.877 0 0 1 3.643 6.087 6.905 6.905 0 0 1-4.269 6.374 6.921 6.921 0 0 1-5.905-.29 6.898 6.898 0 0 1-.577-11.82h.004Zm1.386 9.4a4.424 4.424 0 0 0 4.54.226 4.393 4.393 0 0 0 2.33-3.89 4.41 4.41 0 0 0-1.616-3.401 4.44 4.44 0 0 0-3.66-.925 4.415 4.415 0 0 0-3.042 2.245 4.385 4.385 0 0 0-.179 3.767 4.394 4.394 0 0 0 1.627 1.979Zm2.45 4.86a4.501 4.501 0 0 1 4.473 4.485 4.42 4.42 0 0 1-1.309 3.146 4.456 4.456 0 0 1-3.164 1.29 4.501 4.501 0 0 1-4.472-4.485 4.421 4.421 0 0 1 1.31-3.147 4.448 4.448 0 0 1 3.162-1.29Zm95.356-15.584c0-.183.11-.35.285-.42l2.821-1.01a.458.458 0 0 1 .628.422v22.287c0 .252-.175.455-.424.455h-2.854a.454.454 0 0 1-.456-.455v-.621a8.519 8.519 0 0 1-4.81 1.417c-1.59 0-3.034-.373-4.327-1.125a8.82 8.82 0 0 1-3.098-3.112 8.529 8.529 0 0 1-1.126-4.34c0-1.591.376-3.025 1.126-4.305a8.634 8.634 0 0 1 3.098-3.04 8.258 8.258 0 0 1 4.322-1.16 8.503 8.503 0 0 1 4.81 1.409V1.468l.005-.004Zm0 13.04a4.557 4.557 0 0 0-.604-2.04 4.316 4.316 0 0 0-1.667-1.632 4.745 4.745 0 0 0-2.45-.622c-.91 0-1.725.208-2.45.622a4.32 4.32 0 0 0-1.672 1.633 4.908 4.908 0 0 0-.575 2.417c0 .914.191 1.73.575 2.45a4.517 4.517 0 0 0 1.671 1.698c.726.394 1.541.589 2.446.589.938 0 1.753-.195 2.455-.59a4.221 4.221 0 0 0 1.671-1.697 4.765 4.765 0 0 0 .6-2.072v-.756Zm-75.281 9.035a10.08 10.08 0 0 1-2.638-.341 9.74 9.74 0 0 1-2.332-1.024 7.978 7.978 0 0 1-1.58-1.328.437.437 0 0 1 .023-.605l1.753-1.751a.486.486 0 0 1 .685.012 5.684 5.684 0 0 0 1.62 1.141c.753.321 1.597.48 2.53.48.848 0 1.484-.122 1.916-.374.412-.21.666-.636.653-1.097 0-.499-.204-.885-.612-1.158a5.576 5.576 0 0 0-1.614-.686 65.84 65.84 0 0 0-2.055-.614 11.424 11.424 0 0 1-2.055-.82 4.64 4.64 0 0 1-1.573-1.471c-.408-.609-.616-1.41-.616-2.389 0-1.048.24-1.95.717-2.701A4.928 4.928 0 0 1 23.9 7.074c.913-.41 1.998-.617 3.253-.617 1.321 0 2.487.239 3.494.719a6.276 6.276 0 0 1 2.324 1.775.435.435 0 0 1-.033.585l-1.76 1.755a.49.49 0 0 1-.698-.02 4.688 4.688 0 0 0-1.305-.955 4.847 4.847 0 0 0-2.128-.443c-.75 0-1.333.114-1.745.341-.407.228-.615.561-.615.992 0 .455.204.812.615 1.056.408.252.938.471 1.574.65.665.183 1.345.39 2.055.617.734.204 1.42.5 2.06.89.66.366 1.197.865 1.605 1.503.412.614.62 1.422.62 2.426 0 1.592-.563 2.855-1.68 3.79-1.12.934-2.638 1.401-4.554 1.401h.004Zm32.95-4.236c-.746-1.296-1.122-2.742-1.122-4.334a8.338 8.338 0 0 1 1.122-4.307 8.645 8.645 0 0 1 3.098-3.043c1.293-.775 2.736-1.161 4.322-1.161a8.515 8.515 0 0 1 4.362 1.129 8.293 8.293 0 0 1 3.062 3.07c.77 1.28 1.157 2.715 1.157 4.307 0 1.597-.382 3.039-1.157 4.339a8.546 8.546 0 0 1-3.062 3.112c-1.296.752-2.748 1.125-4.362 1.125a8.449 8.449 0 0 1-4.322-1.125 8.862 8.862 0 0 1-3.098-3.112Zm11.635-1.966c.408-.72.612-1.536.612-2.45 0-.914-.204-1.718-.612-2.417a4.32 4.32 0 0 0-1.671-1.633c-.701-.414-1.522-.622-2.45-.622a4.875 4.875 0 0 0-2.451.622 4.316 4.316 0 0 0-1.667 1.633c-.387.699-.58 1.503-.58 2.417a5.104 5.104 0 0 0 .576 2.45 4.531 4.531 0 0 0 1.67 1.698c.727.394 1.547.589 2.456.589a4.955 4.955 0 0 0 2.446-.59 4.227 4.227 0 0 0 1.67-1.697Zm6.922 5.861a.455.455 0 0 1-.457-.455V7.253c0-.252.204-.455.457-.455h2.854c.253 0 .456.203.456.455v1.251l.07-.097c.937-1.3 2.34-1.95 4.215-1.95.82 0 1.562.15 2.226.446.333.157.641.363.914.61a.406.406 0 0 1 .073.512l-1.297 2.295c-.154.272-.525.309-.774.134a2.414 2.414 0 0 0-.53-.272c-.363-.138-.783-.203-1.264-.203-1.052 0-1.916.325-2.605.987-.685.662-1.028 1.698-1.028 3.112v8.665a.454.454 0 0 1-.456.455h-2.854ZM34.58 6.798a.454.454 0 0 0-.424.625l6.242 15.491a.46.46 0 0 0 .424.284h1.574a.456.456 0 0 0 .424-.288l3.722-9.482 3.722 9.482c.07.174.237.284.424.284h1.574c.184 0 .355-.11.42-.284l6.246-15.487a.456.456 0 0 0-.424-.625h-2.91a.46.46 0 0 0-.429.296l-3.759 10.067-3.66-10.063a.46.46 0 0 0-.429-.3h-1.549a.461.461 0 0 0-.433.3l-3.657 10.063-3.763-10.067a.456.456 0 0 0-.428-.296h-2.91.003Z"/></svg>