<svg xmlns="http://www.w3.org/2000/svg" width="116" height="21" fill="none"><g clip-path="url(#a)"><path fill="#fff" d="M109.109 20.23c-1.46 0-2.727-.278-3.802-.834-1.076-.566-1.915-1.414-2.517-2.544-.594-1.13-.89-2.53-.889-4.2 0-1.586.31-2.954.93-4.102.62-1.158 1.477-2.038 2.571-2.64 1.094-.602 2.338-.902 3.734-.902 1.34 0 2.53.291 3.57.875 1.039.584 1.846 1.432 2.42 2.544.584 1.112.876 2.443.876 3.994 0 .556-.005.998-.014 1.326h-10.9v-2.872h8.26l-1.559.534c0-.748-.11-1.373-.328-1.874-.21-.511-.52-.894-.93-1.15-.41-.255-.907-.382-1.491-.382-.611 0-1.149.15-1.614.45-.456.293-.811.73-1.066 1.314-.247.584-.37 1.286-.37 2.107v1.408c0 .838.127 1.55.383 2.134.255.584.62 1.026 1.094 1.326.474.292 1.035.438 1.683.438.711 0 1.299-.183 1.764-.547.465-.374.757-.898.875-1.573h4.144c-.128 1.057-.488 1.974-1.08 2.75-.584.774-1.364 1.37-2.339 1.79-.976.42-2.111.63-3.405.63ZM96.518.22h4.144v19.613h-4.144V.22Zm-7.052 20.01c-.784 0-1.486-.137-2.106-.41a4.1 4.1 0 0 1-1.56-1.232c-.428-.556-.747-1.24-.957-2.051l.438.123v3.173h-4.103V5.403h4.144v3.229l-.465.082c.21-.775.529-1.436.957-1.983a4.34 4.34 0 0 1 1.6-1.272c.629-.3 1.336-.45 2.12-.451 1.176 0 2.198.305 3.064.916.866.61 1.532 1.49 1.997 2.64.464 1.14.697 2.494.697 4.062 0 1.559-.237 2.913-.711 4.06-.474 1.14-1.153 2.016-2.038 2.627-.875.611-1.9.917-3.077.917Zm-1.286-3.16c.62 0 1.14-.183 1.56-.547.428-.365.747-.88.957-1.545.218-.666.328-1.45.328-2.352 0-.903-.11-1.687-.328-2.353-.21-.665-.53-1.18-.957-1.545-.42-.374-.94-.561-1.56-.561-.611 0-1.135.186-1.572.56-.43.364-.754.884-.972 1.56-.219.665-.328 1.445-.328 2.339 0 .902.109 1.686.328 2.352.22.665.544 1.18.972 1.545.437.364.961.547 1.572.547ZM81.178.22h4.144v5.184h-4.144V.22ZM70.776 20.23c-.903 0-1.715-.178-2.435-.534a4.1 4.1 0 0 1-1.682-1.518c-.402-.665-.602-1.44-.602-2.325 0-1.35.396-2.38 1.19-3.09.793-.72 1.937-1.19 3.433-1.41l2.503-.355c.501-.074.898-.165 1.19-.273.291-.11.505-.256.642-.438.137-.192.206-.433.206-.725 0-.3-.083-.574-.247-.82-.156-.256-.392-.456-.71-.602-.311-.156-.69-.233-1.136-.233-.711 0-1.281.187-1.71.56-.428.365-.66.867-.697 1.506h-4.28c.036-.967.327-1.824.875-2.572.556-.756 1.326-1.344 2.31-1.764.985-.42 2.125-.63 3.42-.63 1.359 0 2.507.224 3.446.67.94.439 1.646 1.068 2.12 1.888.483.82.725 1.8.725 2.94v6.018c0 .648.045 1.25.137 1.806.1.546.241.893.424 1.04v.464H75.59a9.998 9.998 0 0 1-.233-1.326 16.976 16.976 0 0 1-.095-1.56l.67-.287a4.601 4.601 0 0 1-.958 1.792c-.456.538-1.044.971-1.764 1.3-.712.318-1.523.477-2.434.478Zm1.53-3.036c.585 0 1.1-.128 1.547-.383.446-.266.788-.63 1.026-1.094.246-.465.369-.994.369-1.587v-1.887l.342.19a2.2 2.2 0 0 1-.82.67c-.32.156-.754.288-1.3.398l-1.053.205c-.702.136-1.23.346-1.587.63-.347.282-.52.678-.52 1.19 0 .511.187.916.562 1.216.373.301.85.452 1.435.452ZM51.964 5.404h4.404l3.788 12.378h-1.327l3.638-12.378h4.28l-4.991 14.43h-4.61l-5.182-14.43ZM45.486 20.23c-1.432 0-2.69-.31-3.775-.93-1.076-.62-1.91-1.505-2.503-2.653-.584-1.15-.875-2.495-.875-4.035 0-1.541.291-2.881.875-4.02.593-1.15 1.427-2.035 2.503-2.654 1.084-.62 2.343-.93 3.775-.93s2.685.31 3.76.93c1.076.62 1.906 1.504 2.49 2.653.592 1.14.889 2.48.889 4.02 0 1.541-.297 2.886-.89 4.036-.584 1.148-1.413 2.033-2.488 2.653-1.076.62-2.33.93-3.761.93Zm0-3.173c.601 0 1.116-.164 1.545-.492.428-.338.756-.835.985-1.491.228-.666.342-1.487.342-2.462 0-1.45-.251-2.548-.753-3.296-.502-.757-1.208-1.135-2.12-1.135-.601 0-1.12.168-1.56.506-.427.328-.755.824-.983 1.49-.228.657-.342 1.469-.342 2.435s.114 1.782.342 2.448c.228.666.556 1.167.984 1.505.438.328.958.492 1.56.492ZM26.22.22h4.294v16.556l-.766-.89h5.786c3.659 0 3.158 3.946 3.158 3.946H26.22V.22Z"/><mask id="c" width="20" height="21" x="0" y="0" maskUnits="userSpaceOnUse" style="mask-type:alpha"><path fill="url(#b)" fill-rule="evenodd" d="M5.904 0c3.26 0 5.904 2.65 5.904 5.92v2.25h1.965c3.26 0 5.904 2.65 5.904 5.92 0 3.268-2.643 5.919-5.904 5.919H0V5.919C0 2.65 2.643 0 5.904 0Z" clip-rule="evenodd"/></mask><g mask="url(#c)"><g filter="url(#d)"><path fill="#4B73FF" d="M8.63 24.001c7.357 0 13.32-5.963 13.32-13.32 0-7.356-5.963-13.32-13.32-13.32-7.356 0-13.32 5.964-13.32 13.32 0 7.357 5.964 13.32 13.32 13.32Z"/></g><g filter="url(#e)"><path fill="#FF66F4" d="M10.094 16.69c9.422 0 17.06-5.963 17.06-13.32 0-7.356-7.638-13.32-17.06-13.32C.673-9.95-6.965-3.985-6.965 3.37c0 7.357 7.638 13.32 17.06 13.32Z"/></g><g filter="url(#f)"><path fill="#FF0105" d="M12.877 12.562c7.356 0 13.32-5.237 13.32-11.698 0-6.46-5.964-11.698-13.32-11.698C5.52-10.834-.443-5.597-.443.864c0 6.46 5.963 11.698 13.32 11.698Z"/></g><g filter="url(#g)"><path fill="#FE7B02" d="M10.331 11.377a8.011 8.011 0 1 0 0-16.021 8.011 8.011 0 0 0 0 16.021Z"/></g></g></g><defs><filter id="d" width="38.581" height="38.581" x="-10.659" y="-8.609" color-interpolation-filters="sRGB" filterUnits="userSpaceOnUse"><feFlood flood-opacity="0" result="BackgroundImageFix"/><feBlend in="SourceGraphic" in2="BackgroundImageFix" result="shape"/><feGaussianBlur result="effect1_foregroundBlur_526_2785" stdDeviation="2.985"/></filter><filter id="e" width="46.057" height="38.581" x="-12.935" y="-15.919" color-interpolation-filters="sRGB" filterUnits="userSpaceOnUse"><feFlood flood-opacity="0" result="BackgroundImageFix"/><feBlend in="SourceGraphic" in2="BackgroundImageFix" result="shape"/><feGaussianBlur result="effect1_foregroundBlur_526_2785" stdDeviation="2.985"/></filter><filter id="f" width="38.581" height="35.337" x="-6.413" y="-16.804" color-interpolation-filters="sRGB" filterUnits="userSpaceOnUse"><feFlood flood-opacity="0" result="BackgroundImageFix"/><feBlend in="SourceGraphic" in2="BackgroundImageFix" result="shape"/><feGaussianBlur result="effect1_foregroundBlur_526_2785" stdDeviation="2.985"/></filter><filter id="g" width="27.962" height="27.962" x="-3.65" y="-10.614" color-interpolation-filters="sRGB" filterUnits="userSpaceOnUse"><feFlood flood-opacity="0" result="BackgroundImageFix"/><feBlend in="SourceGraphic" in2="BackgroundImageFix" result="shape"/><feGaussianBlur result="effect1_foregroundBlur_526_2785" stdDeviation="2.985"/></filter><linearGradient id="b" x1="6.622" x2="12.617" y1="3.516" y2="20.001" gradientUnits="userSpaceOnUse"><stop offset=".025" stop-color="#FF8E63"/><stop offset=".56" stop-color="#FF7EB0"/><stop offset=".95" stop-color="#4B73FF"/></linearGradient><clipPath id="a"><path fill="#fff" d="M0 0h116v21H0z"/></clipPath></defs></svg>