<svg xmlns="http://www.w3.org/2000/svg" width="151" height="29" fill="none"><path fill="#fff" d="M94.23 22.605a5.601 5.601 0 0 0 4.05-1.588l1.997 2.172c-1.326 1.369-3.16 2.39-6.01 2.39-4.904 0-8.064-3.266-8.064-7.684 0-4.38 3.323-7.684 7.61-7.684 4.866 0 7.608 3.723 7.372 8.87H89.708c.418 2.155 1.907 3.524 4.522 3.524Zm3.505-5.969c-.31-1.99-1.49-3.468-3.868-3.468-2.216 0-3.741 1.26-4.14 3.468h8.008ZM18.832 22.44l8.844-9.035h-8.644v-2.829h12.73v2.884l-8.844 9.035h8.97v2.83H18.833V22.44Zm22.972.165a5.601 5.601 0 0 0 4.05-1.588l1.997 2.172c-1.325 1.369-3.16 2.39-6.01 2.39-4.886 0-8.064-3.266-8.064-7.684 0-4.38 3.324-7.684 7.61-7.684 4.866 0 7.608 3.723 7.372 8.87H37.282c.418 2.155 1.907 3.524 4.522 3.524Zm3.505-5.969c-.309-1.99-1.49-3.468-3.868-3.468-2.216 0-3.741 1.26-4.14 3.468h8.008Zm22.554 1.278c0-4.727 3.505-7.666 7.373-7.666 1.943 0 3.796.858 4.885 2.209V3.75h3.124v21.538H80.12v-2.044c-1.126 1.442-2.978 2.337-4.921 2.337-3.741 0-7.337-2.976-7.337-7.667Zm12.422-.036c0-2.629-1.98-4.783-4.65-4.783-2.633 0-4.648 2.1-4.648 4.783 0 2.683 2.034 4.8 4.649 4.8 2.687 0 4.667-2.154 4.649-4.8Zm22.953 4.272 2.833-1.479a4.202 4.202 0 0 0 3.777 2.154c1.762 0 2.688-.913 2.688-1.953 0-1.187-1.707-1.442-3.559-1.825-2.506-.53-5.103-1.37-5.103-4.4 0-2.336 2.215-4.49 5.684-4.453 2.742 0 4.776 1.095 5.92 2.865l-2.615 1.443c-.672-1.04-1.834-1.68-3.305-1.68-1.671 0-2.542.822-2.542 1.77 0 1.06 1.362 1.351 3.486 1.826 2.415.53 5.158 1.332 5.158 4.399 0 2.044-1.762 4.782-5.957 4.746-3.087 0-5.23-1.223-6.465-3.413Zm20.886-3.414-2.469 2.701v3.851h-3.124V3.75h3.124v14.091l6.628-7.32h3.795l-5.738 6.316 5.884 8.451h-3.523l-4.577-6.552ZM58.422 10.23c-3.723 0-6.828 2.41-6.828 6.425v8.616h3.178v-8.214c0-2.41 1.38-3.87 3.74-3.87 2.361 0 3.542 1.442 3.542 3.87v8.214h3.178v-8.597c.018-4.016-3.106-6.444-6.81-6.444Z"/></svg>