<svg xmlns="http://www.w3.org/2000/svg" width="78" height="18" fill="none"><path fill="#FFFEFC" d="M39.087 4.5c-3.022 0-5.202 2.016-5.202 5.076 0 3.06 2.46 5.076 5.484 5.076 1.828 0 3.445-.756 4.429-1.98l-2.108-1.26c-.563.612-1.407.972-2.356.972-1.301 0-2.425-.72-2.847-1.836h7.697c.071-.324.106-.648.106-.972 0-3.06-2.179-5.076-5.203-5.076Zm-2.6 4.068c.351-1.116 1.265-1.836 2.601-1.836 1.301 0 2.249.72 2.601 1.836h-5.202Zm-.633-7.164-7.592 13.5-7.629-13.5h2.848l4.746 8.424 4.78-8.424h2.847ZM10.159 0l10.158 18H0L10.159 0Zm45.169 9.576c0 1.692 1.089 2.808 2.742 2.808 1.124 0 1.968-.54 2.425-1.368l2.109 1.26c-.879 1.476-2.496 2.376-4.534 2.376-3.023 0-5.203-2.016-5.203-5.076 0-3.06 2.18-5.076 5.203-5.076 2.003 0 3.655.9 4.534 2.376l-2.109 1.26c-.422-.864-1.301-1.368-2.425-1.368-1.653 0-2.742 1.116-2.742 2.808ZM78 1.404v12.924h-2.46V1.404H78ZM68.649 4.5c-3.022 0-5.202 2.016-5.202 5.076 0 3.06 2.46 5.076 5.484 5.076 1.828 0 3.445-.756 4.429-1.98l-2.108-1.26c-.563.612-1.407.972-2.356.972-1.301 0-2.425-.72-2.847-1.836h7.697c.071-.324.106-.648.106-.972.035-3.06-2.179-5.076-5.203-5.076Zm-2.6 4.068c.351-1.116 1.265-1.836 2.6-1.836 1.337 0 2.25.72 2.602 1.836h-5.203.001Zm-13.99-3.78v2.736c-.282-.072-.563-.144-.879-.144-1.582 0-2.742 1.116-2.742 2.808v4.176h-2.46V4.788h2.46V7.38c0-1.44 1.617-2.592 3.621-2.592Z"/></svg>