<svg xmlns="http://www.w3.org/2000/svg" width="130" height="23" fill="none"><path fill="#fff" d="M13.164 7.226h.299l-.299-5.277C11.524 1.05 9.193.601 7.373.601 3.282.6 0 2.698 0 6.655c0 6.535 10.238 6.206 10.238 11.632 0 2.579-1.79 3.598-3.492 3.598-3.315 0-5.434-2.879-6.418-6.776H.03l.298 5.577c1.642.899 4.238 1.499 6.388 1.499 4 0 7.672-2.039 7.672-6.656 0-6.805-10.238-6.715-10.238-11.842C4.15 1.709 5.671.9 7.403.9c2.805 0 4.776 3.088 5.761 6.326Zm13.144 1.768v9.744c-.597.509-1.462 1.2-2.836 1.2-1.075 0-1.612-.721-1.612-1.889V6.596h-.537l-6.21.719v.301c1.583.15 1.762.27 1.762 1.378v8.695c0 3.297 1.88 4.497 4.089 4.497 2.209 0 3.971-1.349 5.343-3.148h.15l.119 3.148h.298l6.179-.72v-.299c-1.581-.15-1.761-.27-1.761-1.379V6.596h-.537l-6.805.719v.301c2.179.15 2.358.27 2.358 1.378Zm13.472-.18h-.15L39.78 0h-.298l-6.448.72v.3c1.581.15 1.76.269 1.76 1.378v19.637h.298l2.418-1.649c1.522 1.41 3.373 1.8 4.896 1.8 4.179 0 7.462-2.969 7.462-7.795 0-4.497-2.238-7.795-6-7.795-1.791 0-3.134.871-4.09 2.219l.002-.001Zm1.79-.42c1.702 0 3.046 1.859 3.046 6.237 0 3.807-.717 7.135-2.627 7.135-.806 0-2.209-.33-2.209-3.539V9.114c.568-.479 1.164-.721 1.79-.721v.001Zm9.52.75 5.522 12.891h2.597l4.686-12.712c.448-1.169.776-1.858 2.21-2.128v-.298h-5.852v.299c3.225.18 3.642 1.049 3.225 2.219l-3.225 8.724h-.06l-3.431-8.725c-.418-1.05-.298-2.039 1.432-2.219v-.298h-8.865v.299c.925.119 1.342.959 1.761 1.948Zm22.08 11.303V6.596h-.299l-6.447.719v.301c1.581.15 1.76.27 1.76 1.378v11.452c0 .87-.179.99-1.761 1.14v.299h8.507v-.299c-1.582-.15-1.761-.271-1.761-1.14l.001.001Zm12.855-9.055h.298l-.298-3.867c-1.195-.569-3.105-.929-4.507-.929-4 0-5.762 1.978-5.762 4.377 0 5.456 7.852 5.276 7.852 8.815 0 1.319-.956 2.098-2.478 2.098-2.269 0-4.24-1.559-5.224-4.797h-.298l.327 4.047c1.195.6 3.493 1.05 5.045 1.05 3.821 0 6.179-1.859 6.179-4.707 0-5.126-7.641-4.948-7.641-8.754 0-1.169.686-1.828 1.94-1.828 1.939 0 3.762 2.367 4.567 4.495Zm12.781-2.398v9.744c-.598.509-1.463 1.2-2.836 1.2-1.075 0-1.612-.721-1.612-1.889V6.596h-.538l-6.21.719v.301c1.583.15 1.762.27 1.762 1.378v8.695c0 3.297 1.881 4.497 4.09 4.497 2.209 0 3.97-1.349 5.344-3.148h.148l.119 3.148h.299l6.179-.72v-.299c-1.581-.15-1.761-.27-1.761-1.379V6.596h-.538l-6.804.719v.301c2.179.15 2.358.27 2.358 1.378Zm20.337 11.003v-8.815c.06-2.548-2.031-4.587-5.731-4.587-4.299 0-6.717 3.207-6.717 4.917 0 1.138.926 1.559 1.911 1.559 1.104 0 1.881-.57 1.881-1.26 0-.869-1.761-1.169-1.761-2.368 0-1.201 1.253-1.889 2.506-1.889 2.12 0 2.925 1.618 2.925 3.297v3.028c-6.476.389-7.909 2.908-7.909 4.767 0 1.979 1.283 3.538 3.552 3.538 1.791 0 3.283-.899 4.298-2.398h.059v.359c0 1.11.777 2.039 2.478 2.039s3.224-.78 4.448-1.769l-.03-.239c-.387.239-.865.509-1.223.509-.448 0-.687-.269-.687-.688Zm-4.986-.511c-.387.241-.745.48-1.283.48-.955 0-1.551-.688-1.551-2.458 0-2.248 1.014-3.087 2.834-3.329v5.307Zm14.019.961V0h-.299l-6.447.72v.3c1.582.15 1.761.269 1.761 1.378v18.048c0 .87-.179.99-1.761 1.14v.299h8.507v-.299c-1.582-.15-1.761-.271-1.761-1.14v.001Z"/></svg>