<svg xmlns="http://www.w3.org/2000/svg" width="148" height="25" fill="none"><g fill="#fff" clip-path="url(#a)"><path d="M8.871.39a.39.39 0 0 1 .39-.39h13.17a.39.39 0 0 1 .391.39v6.474a.39.39 0 0 1-.39.39H9.261a.39.39 0 0 1-.39-.39V.39Zm0 8.315a.39.39 0 0 1 .39-.39h3.126a.39.39 0 0 1 .39.39v6.473a.39.39 0 0 1-.39.39H9.262a.39.39 0 0 1-.39-.39V8.705Zm5.024 0a.39.39 0 0 1 .39-.39h3.125a.39.39 0 0 1 .39.39v6.473a.39.39 0 0 1-.39.39h-3.125a.39.39 0 0 1-.39-.39V8.705ZM0 20.537a4.464 4.464 0 1 1 8.929 0 4.464 4.464 0 0 1-8.929 0ZM7.757 7.785v7.396c0 .216-.175.39-.39.379C3.263 15.356 0 11.953 0 7.785S3.264.215 7.366.01c.216-.01.39.164.39.38v7.395Zm35.209-3.711v2.7h-8.354v4.514h7.865v2.653h-7.865v6.562h-2.909V4.074h11.263Zm7.386 4.049c.326 0 .768.07 1.024.163v2.63h-.791c-2.164 0-3.165 1.07-3.42 1.908v7.679h-2.7V8.286H47v1.908c.605-1.14 1.699-2.071 3.351-2.071Zm7.596-.209c2.653 0 4.793 1.396 5.468 3.258v9.331h-2.49V19.27c-.837 1-2.14 1.582-3.7 1.582-2.28 0-4.025-1.024-4.63-2.257v-2.769c.698-1.49 2.606-2.187 4.77-2.467 2.094-.279 3.165-.465 3.42-.837v-.699c-.395-.767-1.349-1.466-2.861-1.466-1.513 0-2.723.885-3.235 1.978l-2.397-1.047c.815-1.885 3.002-3.374 5.655-3.374Zm2.839 9.285v-2.7c-.442.35-1.466.629-2.979.908-1.559.28-2.304.582-2.606 1.164v1.07c.395.512 1.14.954 2.536.954 1.35 0 2.49-.582 3.049-1.396Zm18.586-9.261c2.396 0 4.258 1.605 4.747 3.257v9.309h-2.7v-8.587c-.325-.745-1.233-1.49-2.652-1.49-1.397 0-2.397.815-2.63 1.536v8.54h-2.7v-8.586c-.325-.745-1.233-1.49-2.652-1.49-1.42 0-2.397.815-2.63 1.536v8.54h-2.699V8.288h2.536V9.59c.792-.978 1.955-1.652 3.514-1.652 1.63 0 3.002.79 3.886 1.838.838-1.094 2.188-1.838 3.98-1.838Zm15.852 8.47 2.466.977c-.977 2.141-3.141 3.49-5.957 3.49-3.002 0-5.306-1.745-6.05-3.979V11.87c.744-2.234 3.002-3.956 5.98-3.956 2.932 0 5.166 1.722 5.934 3.956v3.42h-9.262v1.025c.326 1.07 1.606 2.164 3.421 2.164 1.885 0 2.979-.954 3.468-2.071Zm-3.584-6.12c-1.722 0-2.979 1.047-3.305 2.14v.699h6.61v-.699c-.35-1.093-1.56-2.14-3.305-2.14Zm16.849-.862v-5.91h2.7v16.987h-2.56v-1.326c-.931 1.047-2.28 1.698-3.956 1.698-2.792 0-4.933-1.768-5.655-3.979V11.87c.722-2.211 2.863-3.956 5.655-3.956 1.606 0 2.909.581 3.816 1.512Zm0 7.237v-4.537c-.535-.931-1.745-1.722-3.327-1.722-1.792 0-3.072 1.07-3.444 2.164v3.653c.372 1.094 1.652 2.188 3.444 2.188 1.582 0 2.792-.815 3.327-1.746Zm10.757-8.54c.325 0 .768.07 1.024.163v2.63h-.792c-2.164 0-3.164 1.07-3.42 1.908v7.679h-2.7V8.286h2.537v1.908c.605-1.14 1.699-2.071 3.351-2.071Zm8.228 12.753c-3.025 0-5.399-1.722-6.19-3.98V11.87c.791-2.234 3.165-3.956 6.19-3.956 3.049 0 5.422 1.722 6.19 3.956v5.026c-.768 2.258-3.141 3.98-6.19 3.98Zm0-2.467c1.792 0 3.142-1.094 3.491-2.187v-3.654c-.349-1.094-1.699-2.187-3.491-2.187s-3.118 1.093-3.49 2.187v3.654c.372 1.093 1.698 2.187 3.49 2.187Zm14.396-10.471c2.769 0 4.934 1.722 5.632 3.955v5.004c-.698 2.234-2.863 3.979-5.632 3.979-1.582 0-2.885-.582-3.816-1.513v5.096h-2.7V8.287h2.537v1.326c.931-1.047 2.28-1.675 3.979-1.675Zm2.932 8.284v-3.63c-.349-1.094-1.629-2.165-3.42-2.165-1.606 0-2.816.792-3.328 1.723v4.514c.512.93 1.722 1.745 3.328 1.745 1.791 0 3.071-1.093 3.42-2.187Z"/></g><defs><clipPath id="a"><path fill="#fff" d="M0 0h148v25H0z"/></clipPath></defs></svg>