<svg xmlns="http://www.w3.org/2000/svg" width="260" height="64" fill="none"><g fill="#fff" clip-path="url(#a)"><path fill-rule="evenodd" d="M7.539 6.862a16.93 16.93 0 0 1 26.36 14.12 17 17 0 0 1-10.47 15.69 16.93 16.93 0 0 1-23.1-12.38 17.01 17.01 0 0 1 7.2-17.43h.01Zm3.4 23.14a10.82 10.82 0 0 0 16.85-9.02 10.87 10.87 0 0 0-12.94-10.65 10.83 10.83 0 0 0-7.9 14.8c.82 1.98 2.2 3.68 3.99 4.87Zm6.01 11.96a11.06 11.06 0 0 1 10.97 11.04 10.9 10.9 0 0 1-10.97 10.92 11.06 11.06 0 0 1-10.97-11.04 10.9 10.9 0 0 1 10.97-10.92ZM250.84 3.6c0-.45.27-.86.7-1.03l6.92-2.49c.73-.3 1.54.25 1.54 1.04v54.86c0 .62-.43 1.12-1.04 1.12h-7c-.62 0-1.12-.5-1.12-1.12v-1.53a20.83 20.83 0 0 1-11.8 3.49c-3.9 0-7.44-.92-10.61-2.77a21.673 21.673 0 0 1-7.6-7.66 21.047 21.047 0 0 1-2.76-10.68c0-3.92.92-7.45 2.76-10.6a21.211 21.211 0 0 1 7.6-7.48 20.197 20.197 0 0 1 10.6-2.86 20.82 20.82 0 0 1 11.8 3.47V3.61l.01-.01Zm0 33.97V35.7a11.227 11.227 0 0 0-1.48-5.02c-1-1.72-2.36-3.06-4.09-4.02a11.611 11.611 0 0 0-6.01-1.53c-2.23 0-4.23.51-6.01 1.53-1.73.96-3.1 2.3-4.1 4.02a12.12 12.12 0 0 0-1.41 5.95c0 2.25.47 4.26 1.41 6.03 1 1.77 2.37 3.16 4.1 4.18 1.78.97 3.78 1.45 6 1.45 2.3 0 4.3-.48 6.02-1.45a10.381 10.381 0 0 0 4.1-4.18 11.733 11.733 0 0 0 1.47-5.1v.01Z" clip-rule="evenodd"/><path d="M66.19 57.94c-2.24 0-4.4-.28-6.47-.84A23.899 23.899 0 0 1 54 54.58a19.595 19.595 0 0 1-3.88-3.27 1.08 1.08 0 0 1 .06-1.49l4.3-4.31a1.19 1.19 0 0 1 1.68.03c1.2 1.2 2.52 2.13 3.97 2.81 1.85.79 3.92 1.18 6.21 1.18 2.08 0 3.64-.3 4.7-.92a2.94 2.94 0 0 0 1.6-2.7c0-1.23-.5-2.18-1.5-2.85a13.701 13.701 0 0 0-3.96-1.69c-1.56-.5-3.24-1-5.04-1.51a27.824 27.824 0 0 1-5.04-2.02c-1.56-.9-2.85-2.1-3.86-3.62-1-1.5-1.51-3.47-1.51-5.88 0-2.58.59-4.8 1.76-6.65a12.08 12.08 0 0 1 5.13-4.28c2.24-1.01 4.9-1.52 7.98-1.52 3.24 0 6.1.59 8.57 1.77 2.23 1 4.13 2.45 5.7 4.37.36.43.3 1.05-.08 1.44l-4.32 4.32a1.2 1.2 0 0 1-1.71-.05c-.97-1-2.04-1.78-3.2-2.35a11.862 11.862 0 0 0-5.22-1.09c-1.84 0-3.27.28-4.28.84-1 .56-1.51 1.38-1.51 2.44 0 1.12.5 2 1.51 2.6 1 .62 2.3 1.16 3.86 1.6 1.63.45 3.3.96 5.04 1.52 1.8.5 3.48 1.23 5.05 2.19 1.62.9 2.94 2.13 3.94 3.7 1.01 1.51 1.52 3.5 1.52 5.97 0 3.92-1.38 7.03-4.12 9.33-2.75 2.3-6.47 3.45-11.17 3.45h.01Z"/><path fill-rule="evenodd" d="M154.61 55.169a20.67 20.67 0 0 0 10.6 2.77c3.96 0 7.52-.92 10.7-2.77a20.995 20.995 0 0 0 7.51-7.66c1.9-3.2 2.84-6.75 2.84-10.68 0-3.92-.95-7.45-2.84-10.6a20.342 20.342 0 0 0-7.51-7.56 20.83 20.83 0 0 0-10.7-2.78c-3.89 0-7.43.95-10.6 2.86a21.214 21.214 0 0 0-7.6 7.49 20.597 20.597 0 0 0-2.75 10.6c0 3.92.92 7.48 2.75 10.67 1.9 3.2 4.43 5.75 7.6 7.66Zm16.84-8.32a12.119 12.119 0 0 1-6 1.45c-2.23 0-4.24-.48-6.02-1.45a11.144 11.144 0 0 1-4.1-4.18 12.603 12.603 0 0 1-1.41-6.03c0-2.25.47-4.23 1.42-5.95 1-1.72 2.36-3.06 4.09-4.02a11.9 11.9 0 0 1 6.01-1.53c2.28 0 4.29.51 6.01 1.53 1.73.96 3.1 2.3 4.1 4.02 1 1.72 1.5 3.7 1.5 5.95s-.5 4.26-1.5 6.03a10.387 10.387 0 0 1-4.1 4.18Z" clip-rule="evenodd"/><path d="M192.529 57.1c-.62 0-1.12-.5-1.12-1.12V17.85c0-.62.5-1.12 1.12-1.12h7c.62 0 1.12.5 1.12 1.12v3.08l.17-.24c2.3-3.2 5.74-4.8 10.34-4.8 2.01 0 3.83.37 5.46 1.1a9.13 9.13 0 0 1 2.24 1.5c.36.31.42.84.18 1.26l-3.18 5.65c-.38.67-1.29.76-1.9.33a5.892 5.892 0 0 0-1.3-.67c-.89-.34-1.92-.5-3.1-.5-2.58 0-4.7.8-6.39 2.43-1.68 1.63-2.52 4.18-2.52 7.66v21.33c0 .62-.5 1.12-1.12 1.12h-7ZM84.819 16.73c-.8 0-1.34.8-1.04 1.54L99.09 56.4c.17.42.58.7 1.04.7h3.86c.46 0 .87-.28 1.04-.71l9.13-23.34 9.13 23.34c.17.43.58.7 1.04.7h3.86c.45 0 .87-.27 1.03-.7l15.32-38.12c.3-.73-.25-1.54-1.04-1.54h-7.14c-.47 0-.89.3-1.05.73l-9.22 24.78-8.98-24.77a1.119 1.119 0 0 0-1.05-.74h-3.8c-.48 0-.9.3-1.06.74l-8.97 24.77L93 17.46a1.12 1.12 0 0 0-1.05-.73h-7.14.01Z"/></g><defs><clipPath id="a"><path fill="#fff" d="M0 0h260v64H0z"/></clipPath></defs></svg>