<svg xmlns="http://www.w3.org/2000/svg" width="89" height="24" fill="none"><path fill="#fff" d="M.002 17.893h4.155L9.024 5.697l2.64 6.786 2.013-5.041-1.923-5.164S11.035 0 9.072 0C7.108 0 6.34 2 6.34 2L.002 17.893ZM15.569 7.442h4.22l-6.017 15.08-4.214-.004 6.011-15.076Zm11.697 4.942c0 .96-.222 1.678-.664 2.153-.442.476-1.14.713-2.09.713h-1.2V8.91h1.2c.95 0 1.648.214 2.09.642.442.428.664 1.08.664 1.956v.876Zm-2.64-4.93h-2.853c-.104 0-.156.057-.156.17v8.91c0 .114.052.17.155.17h2.853c1.47 0 2.558-.362 3.27-1.087.71-.725 1.065-1.808 1.065-3.248v-.847c0-1.356-.357-2.373-1.073-3.05-.715-.678-1.802-1.017-3.26-1.017Zm7.551 5.932.808-2.64c.186-.606.365-1.213.536-1.822h.03c.17.619.349 1.236.536 1.85l.82 2.612h-2.73Zm2.474-5.804c-.028-.085-.094-.127-.198-.127h-1.807c-.094 0-.156.042-.184.127l-3.05 8.939c-.028.122.02.183.141.183h1.455c.103 0 .17-.046.198-.14l.548-1.794h3.587l.567 1.807c.028.085.09.127.183.127h1.497c.123 0 .165-.06.127-.183l-3.064-8.94Zm9.59 1.2V7.626c0-.114-.058-.17-.17-.17h-6.567c-.113 0-.17.056-.17.17v1.158c0 .112.057.17.17.17h2.43v7.582c0 .113.055.17.17.17h1.367c.114 0 .17-.057.17-.17V8.952h2.43c.112 0 .17-.056.17-.17Zm2.37 4.604.805-2.64a68.065 68.065 0 0 0 .537-1.822h.03c.083.31.171.619.26.925.09.306.181.614.275.924l.82 2.613H46.61Zm2.472-5.804c-.028-.085-.094-.127-.197-.127h-1.808c-.094 0-.155.042-.184.127l-3.05 8.94c-.028.122.02.182.141.182h1.454c.104 0 .17-.046.198-.14l.548-1.794h3.587l.568 1.808c.027.084.09.127.183.127h1.497c.122 0 .165-.061.127-.184l-3.064-8.94Zm9.518 7.626h-3.713V7.625c0-.113-.052-.17-.156-.17h-1.384c-.103 0-.155.056-.155.17v8.91c0 .113.052.17.155.17h5.253c.113 0 .17-.057.17-.17v-1.157c0-.114-.057-.17-.17-.17Zm2.995-7.753h-1.37c-.105 0-.156.057-.156.17v8.91c0 .113.051.17.155.17h1.37c.113 0 .17-.057.17-.17v-8.91c0-.113-.056-.17-.169-.17Zm9.446 0h-1.327c-.103 0-.155.057-.155.17v4.462c.001.572.01 1.144.028 1.716.01.297.024.572.042.826h-.042a17.708 17.708 0 0 0-.296-.734 27.865 27.865 0 0 0-.82-1.737L66.2 7.568c-.038-.075-.104-.113-.198-.113h-2.005c-.104 0-.155.057-.155.17v8.91c0 .113.051.17.155.17h1.327c.114 0 .17-.057.17-.17v-5.168c0-.301-.005-.602-.014-.904l-.029-.89h.043l.36.834c.257.59.528 1.174.812 1.75l2.203 4.435c.037.075.104.113.197.113h1.977c.113 0 .17-.056.17-.17v-8.91c0-.113-.057-.17-.17-.17Zm6.298 3.756 3.107-3.558c.047-.056.06-.104.036-.141-.024-.037-.069-.056-.135-.056H78.64a.242.242 0 0 0-.198.084l-2.288 2.67a42.25 42.25 0 0 0-1.186 1.524h-.028c.018-.282.03-.565.035-.847.005-.283.007-.56.007-.833v-2.43c0-.112-.056-.168-.17-.168h-1.369c-.104 0-.155.056-.155.169v8.91c0 .114.05.17.155.17h1.37c.113 0 .17-.056.17-.17v-2.668l1.185-1.342 2.57 4.067a.221.221 0 0 0 .198.113h1.695c.065 0 .108-.02.127-.056.018-.038.01-.085-.029-.142l-3.388-5.296Zm10.697 2.02a2.018 2.018 0 0 0-.579-.798c-.268-.23-.633-.44-1.094-.628l-2.02-.862a4.063 4.063 0 0 1-.67-.352.988.988 0 0 1-.346-.375 1.075 1.075 0 0 1-.099-.473c0-.34.122-.593.367-.762.245-.17.607-.254 1.088-.254.546 0 .967.11 1.263.332.297.22.431.52.403.896-.01.094 0 .16.028.198.03.037.071.056.127.056h1.342c.093 0 .15-.084.17-.254.056-.583-.043-1.07-.297-1.462-.255-.39-.638-.687-1.15-.89-.515-.202-1.138-.302-1.87-.302-1.047 0-1.834.21-2.36.635-.528.423-.796 1.035-.806 1.835 0 .386.057.73.17 1.03.113.303.305.569.578.799.274.23.637.445 1.09.643l2.046.875c.273.113.49.224.65.332a.97.97 0 0 1 .34.367c.064.137.097.295.097.473 0 .386-.139.67-.416.855-.278.183-.704.275-1.278.275-.584 0-1.017-.106-1.3-.318-.282-.211-.423-.548-.423-1.01.01-.14-.048-.211-.17-.211h-1.327c-.113 0-.179.08-.198.24-.065.866.174 1.542.72 2.026.546.485 1.417.727 2.613.727 1.205 0 2.085-.223 2.64-.67.556-.448.833-1.08.834-1.9.01-.414-.045-.771-.163-1.073Z"/></svg>