<svg xmlns="http://www.w3.org/2000/svg" width="151" height="30" fill="none"><g clip-path="url(#a)"><path fill="#fff" d="M1.992 14.716c0-7.692 4.85-12.001 11.935-12.001h8.51v4.582h-8.239c-4.339 0-7.288 2.497-7.288 7.42 0 4.921 2.95 7.418 7.288 7.418h8.238v4.583h-8.509c-7.086 0-11.935-4.376-11.935-12.002Zm24.85 4.344V2.718h4.747v15.35c0 2.974 1.526 4.033 4.033 4.033h2.847c2.476 0 4.033-1.059 4.033-4.033V2.718h4.713v16.377c0 5.163-3.389 7.623-7.967 7.623H34.84c-4.61 0-8.002-2.463-8.002-7.658h.003ZM52.334 2.718h14.069c4.815 0 7.222 2.598 7.222 6.769 0 2.666-1.255 4.82-3.255 5.402 2.069.239 3.053 1.743 3.053 3.556v8.273h-4.781v-7.146c0-1.266-.374-2.154-2.068-2.154h-9.46v9.3h-4.78v-24ZM65.76 12.94c2.17 0 3.052-1.162 3.052-2.87 0-1.847-.882-2.837-3.118-2.837h-8.577v5.71h8.646l-.003-.003Zm12.1 9.228h13.122c1.595 0 2.61-.888 2.61-2.496 0-1.675-1.05-2.325-2.713-2.463l-6.612-.512c-4.17-.308-7.017-2.428-7.017-6.941 0-4.48 3.152-7.042 7.288-7.042h12.985v4.548H84.81c-1.83 0-2.78.889-2.78 2.462 0 1.64 1.017 2.325 2.814 2.497l6.713.478c4.102.307 6.814 2.497 6.814 6.906 0 4.24-2.88 7.112-7.051 7.112H77.859v-4.549h.003Zm22.917-7.487c0-7.284 5.22-12.375 12.206-12.375h.068c6.983 0 12.24 5.094 12.24 12.375 0 7.315-5.254 12.444-12.24 12.444h-.068c-6.983 0-12.206-5.129-12.206-12.444Zm12.24 7.796c4.304 0 7.459-3.078 7.459-7.762 0-4.648-3.152-7.76-7.459-7.76-4.273 0-7.425 3.112-7.425 7.76 0 4.684 3.152 7.762 7.425 7.762Zm16.034-19.76h14.068c4.815 0 7.223 2.598 7.223 6.769 0 2.666-1.256 4.82-3.255 5.402 2.068.239 3.052 1.743 3.052 3.556v8.273h-4.781v-7.146c0-1.266-.373-2.154-2.068-2.154h-9.459v9.3h-4.78v-24Zm13.426 10.223c2.171 0 3.052-1.162 3.052-2.87 0-1.847-.881-2.837-3.117-2.837h-8.578v5.71h8.646l-.003-.003Z"/></g><defs><clipPath id="a"><path fill="#fff" d="M.652.602h150v28.5h-150z"/></clipPath></defs></svg>