<svg xmlns="http://www.w3.org/2000/svg" width="39" height="29" fill="none"><path fill="#fff" d="M5.487 4.877a3.485 3.485 0 1 1 6.97 0 3.485 3.485 0 0 1-6.97 0Zm28.333 9.181a3.488 3.488 0 0 0-3.485-3.485 3.488 3.488 0 0 0-3.485 3.485 3.49 3.49 0 0 0 3.485 3.485 3.488 3.488 0 0 0 3.485-3.485ZM38.5 0v22.014h-4.647v-.637a8.071 8.071 0 0 1-3.517.81c-4.484 0-8.132-3.647-8.132-8.13 0-4.485 3.648-8.132 8.132-8.132 1.261 0 2.45.297 3.517.811V0H38.5ZM22.204 0v22.014h-4.647V8.941L8.972 28.26H3.888l2.565-5.773L0 8.364h5.11l3.862 8.455 3.757-8.455h4.828V0h4.647Z"/></svg>